<?xml version="1.0" encoding="UTF-8"?>
<!DOCTYPE svg PUBLIC "-//W3C//DTD SVG 1.1//EN" "http://www.w3.org/Graphics/SVG/1.1/DTD/svg11.dtd">
<!-- Creator: CorelDRAW -->
<svg xmlns="http://www.w3.org/2000/svg" xml:space="preserve" width="1.3814in" height="0.744898in" version="1.1" style="shape-rendering:geometricPrecision; text-rendering:geometricPrecision; image-rendering:optimizeQuality; fill-rule:evenodd; clip-rule:evenodd"
viewBox="0 0 18.04 9.73"
 xmlns:xlink="http://www.w3.org/1999/xlink"
 xmlns:xodm="http://www.corel.com/coreldraw/odm/2003">
 <defs>
  <style type="text/css">
   <![CDATA[
    .fil0 {fill:#FEFEFE}
   ]]>
  </style>
 </defs>
 <g id="Layer_x0020_1">
  <metadata id="CorelCorpID_0Corel-Layer"/>
  <path class="fil0" d="M9.78 7.12l1.68 -1.88c0.29,0.44 1.02,1.15 1.17,1.61 0.18,0.56 0,1.06 -0.4,1.42 -1.09,0.57 -1.8,-0.49 -2.45,-1.15zm-1.67 0.15l0.02 -0.02 -1.43 -1.7 -1.14 -1.41c-0.07,-0.09 -0.13,-0.16 -0.2,-0.24 -0.03,-0.04 -0.06,-0.08 -0.09,-0.12 -0.03,-0.04 -0.06,-0.07 -0.1,-0.12 -0.04,-0.05 -0.06,-0.07 -0.1,-0.12l-1.26 -1.54c-0.2,-0.24 -0.36,-0.48 -0.63,-0.64 -0.49,-0.29 -1.17,-0.23 -1.58,0.19 -0.29,0.29 -0.39,0.55 -0.39,1 0,0.19 0.06,0.39 0.14,0.55 0.08,0.16 0.49,0.65 0.61,0.78l2.8 3.42c0.29,0.35 0.66,0.87 1.02,1.06 0.5,0.26 1.15,0.15 1.54,-0.27l0.82 -0.82zm0.82 -0.92l1.31 -1.47 0 -0 0.47 -0.53 -0 -0 0.79 -0.89 0 0c0.14,-0.16 0.28,-0.31 0.41,-0.46l0 -0c0.43,-0.49 0.85,-0.97 1.27,-1.48 0.76,-0.96 1.72,-1.64 3,-1.33 0.39,0.1 0.61,0.21 0.93,0.43 0.9,0.62 1.15,1.96 0.68,2.92 -0.02,0.03 -0.03,0.06 -0.04,0.1 -0.11,0.21 -0.26,0.4 -0.41,0.58l-2.58 3.14c-0.09,0.11 -0.17,0.2 -0.26,0.31l-0.77 0.94c-0.18,0.21 -0.34,0.4 -0.57,0.57 -1.14,0.86 -2.66,0.63 -3.64,-0.35 -0.08,-0.08 -0.64,-0.71 -0.66,-0.71l-0.65 0.71c-0.23,0.27 -0.67,0.57 -0.94,0.66 -0.41,0.15 -0.63,0.17 -1.08,0.17 -0.58,0 -1.26,-0.32 -1.64,-0.75 -0.01,-0.02 -0.02,-0.02 -0.03,-0.04 -0.26,-0.27 -0.48,-0.57 -0.72,-0.86l-0.26 -0.31c-0.09,-0.11 -0.17,-0.21 -0.26,-0.32l-2.07 -2.53c-0.09,-0.1 -0.17,-0.2 -0.26,-0.31l-0.51 -0.64c-0.17,-0.23 -0.29,-0.51 -0.37,-0.79 -0.25,-0.91 0.08,-1.92 0.75,-2.52 0.21,-0.18 0.45,-0.33 0.71,-0.44 0.97,-0.41 2.23,-0.11 2.87,0.7l0.5 0.61c0.06,0.07 0.18,0.26 0.27,0.28 0.02,-0.23 0.36,-0.74 0.53,-0.91 0.06,-0.06 0.12,-0.13 0.19,-0.18 0.35,-0.29 0.75,-0.5 1.21,-0.58 0.23,-0.04 0.42,-0.03 0.65,-0.03 0.45,0.01 0.95,0.24 1.29,0.49l0.2 0.16c0.3,0.26 0.71,0.85 0.98,1.16l0.63 0.77 -0.8 0.89 -0.9 -1.09c-0.24,-0.29 -0.64,-0.84 -0.93,-1.02 -0.25,-0.15 -0.44,-0.18 -0.74,-0.18 -0.41,0 -0.82,0.26 -1,0.54 -0.31,0.47 -0.34,1.04 -0.01,1.52l2.46 3.03zm5.11 -4c-0.35,0.39 -0.7,0.78 -1.04,1.18l-0.72 0.87c0.1,0.15 0.9,1.09 1.07,1.3 0.16,0.21 0.46,0.69 0.46,0.94 0.07,-0.02 0.18,-0.18 0.22,-0.24 0.07,-0.09 0.13,-0.16 0.2,-0.24l1.81 -2.21c0.14,-0.17 0.51,-0.61 0.6,-0.75 0.28,-0.42 0.28,-0.85 0.02,-1.28l-0.12 -0.16c-0.42,-0.48 -1.07,-0.57 -1.63,-0.28 -0.14,0.07 -0.89,0.84 -0.86,0.87z"/>
 </g>
</svg>
